<mxfile host="app.diagrams.net" modified="2024-05-01T18:08:41.033Z" agent="Mozilla/5.0 (Windows NT 10.0; Win64; x64) AppleWebKit/537.36 (KHTML, like Gecko) Chrome/124.0.0.0 Safari/537.36" etag="JIYLAhm-JSSe5hZezFpu" version="24.3.1" type="onedrive">
  <diagram name="Page-1" id="cNHz8u3WK0uKgeiFYbvS">
    <mxGraphModel grid="1" page="1" gridSize="10" guides="1" tooltips="1" connect="1" arrows="1" fold="1" pageScale="1" pageWidth="850" pageHeight="1100" math="0" shadow="0">
      <root>
        <mxCell id="0" />
        <mxCell id="1" parent="0" />
        <mxCell id="nixui0lmoN9sBxmVn7yY-3" value="Model&amp;nbsp;" style="rounded=0;whiteSpace=wrap;html=1;align=center;verticalAlign=top;" vertex="1" parent="1">
          <mxGeometry x="130" y="690" width="390" height="350" as="geometry" />
        </mxCell>
        <mxCell id="7gfySwXnlS-Ip5x9oLkc-18" value="Receiver" style="rounded=0;whiteSpace=wrap;html=1;verticalAlign=top;fontStyle=1" vertex="1" parent="1">
          <mxGeometry x="200" y="280" width="280" height="310" as="geometry" />
        </mxCell>
        <mxCell id="xYVuh7y8W_hCmnlhNMNl-2" value="Commands" style="swimlane;fontStyle=1;align=center;verticalAlign=top;childLayout=stackLayout;horizontal=1;startSize=26;horizontalStack=0;resizeParent=1;resizeParentMax=0;resizeLast=0;collapsible=1;marginBottom=0;whiteSpace=wrap;html=1;" vertex="1" parent="1">
          <mxGeometry x="740" y="260" width="160" height="74" as="geometry" />
        </mxCell>
        <mxCell id="xYVuh7y8W_hCmnlhNMNl-4" value="" style="line;strokeWidth=1;fillColor=none;align=left;verticalAlign=middle;spacingTop=-1;spacingLeft=3;spacingRight=3;rotatable=0;labelPosition=right;points=[];portConstraint=eastwest;strokeColor=inherit;" vertex="1" parent="xYVuh7y8W_hCmnlhNMNl-2">
          <mxGeometry y="26" width="160" height="8" as="geometry" />
        </mxCell>
        <mxCell id="xYVuh7y8W_hCmnlhNMNl-5" value="+ Execute: void&lt;div&gt;+ Unexecute: void&lt;/div&gt;" style="text;strokeColor=none;fillColor=none;align=left;verticalAlign=top;spacingLeft=4;spacingRight=4;overflow=hidden;rotatable=0;points=[[0,0.5],[1,0.5]];portConstraint=eastwest;whiteSpace=wrap;html=1;" vertex="1" parent="xYVuh7y8W_hCmnlhNMNl-2">
          <mxGeometry y="34" width="160" height="40" as="geometry" />
        </mxCell>
        <mxCell id="7gfySwXnlS-Ip5x9oLkc-1" value="History" style="swimlane;fontStyle=1;align=center;verticalAlign=top;childLayout=stackLayout;horizontal=1;startSize=26;horizontalStack=0;resizeParent=1;resizeParentMax=0;resizeLast=0;collapsible=1;marginBottom=0;whiteSpace=wrap;html=1;" vertex="1" parent="1">
          <mxGeometry x="510" y="240" width="160" height="104" as="geometry">
            <mxRectangle x="470" y="144" width="130" height="30" as="alternateBounds" />
          </mxGeometry>
        </mxCell>
        <mxCell id="7gfySwXnlS-Ip5x9oLkc-3" value="" style="line;strokeWidth=1;fillColor=none;align=left;verticalAlign=middle;spacingTop=-1;spacingLeft=3;spacingRight=3;rotatable=0;labelPosition=right;points=[];portConstraint=eastwest;strokeColor=inherit;" vertex="1" parent="7gfySwXnlS-Ip5x9oLkc-1">
          <mxGeometry y="26" width="160" height="8" as="geometry" />
        </mxCell>
        <mxCell id="7gfySwXnlS-Ip5x9oLkc-4" value="+ Do&lt;div&gt;+ Undo&lt;/div&gt;&lt;div&gt;+ Redo&amp;nbsp;&lt;/div&gt;&lt;div&gt;+ DeleteInstance&lt;/div&gt;" style="text;strokeColor=none;fillColor=none;align=left;verticalAlign=top;spacingLeft=4;spacingRight=4;overflow=hidden;rotatable=0;points=[[0,0.5],[1,0.5]];portConstraint=eastwest;whiteSpace=wrap;html=1;" vertex="1" parent="7gfySwXnlS-Ip5x9oLkc-1">
          <mxGeometry y="34" width="160" height="70" as="geometry" />
        </mxCell>
        <mxCell id="7gfySwXnlS-Ip5x9oLkc-5" value="&lt;font face=&quot;Helvetica&quot; style=&quot;font-size: 12px;&quot;&gt;HighscoresModalWindow&lt;/font&gt;" style="swimlane;fontStyle=1;align=center;verticalAlign=top;childLayout=stackLayout;horizontal=1;startSize=26;horizontalStack=0;resizeParent=1;resizeParentMax=0;resizeLast=0;collapsible=1;marginBottom=0;whiteSpace=wrap;html=1;" vertex="1" parent="1">
          <mxGeometry x="230" y="320" width="210" height="74" as="geometry" />
        </mxCell>
        <mxCell id="7gfySwXnlS-Ip5x9oLkc-7" value="" style="line;strokeWidth=1;fillColor=none;align=left;verticalAlign=middle;spacingTop=-1;spacingLeft=3;spacingRight=3;rotatable=0;labelPosition=right;points=[];portConstraint=eastwest;strokeColor=inherit;" vertex="1" parent="7gfySwXnlS-Ip5x9oLkc-5">
          <mxGeometry y="26" width="210" height="8" as="geometry" />
        </mxCell>
        <mxCell id="7gfySwXnlS-Ip5x9oLkc-8" value="+ RemoveHighscore: void&lt;div&gt;+ AddHighscore:void&lt;/div&gt;" style="text;strokeColor=none;fillColor=none;align=left;verticalAlign=top;spacingLeft=4;spacingRight=4;overflow=hidden;rotatable=0;points=[[0,0.5],[1,0.5]];portConstraint=eastwest;whiteSpace=wrap;html=1;" vertex="1" parent="7gfySwXnlS-Ip5x9oLkc-5">
          <mxGeometry y="34" width="210" height="40" as="geometry" />
        </mxCell>
        <mxCell id="7gfySwXnlS-Ip5x9oLkc-9" value="&lt;font face=&quot;Helvetica&quot;&gt;SettingsModalWindow&lt;/font&gt;" style="swimlane;fontStyle=1;align=center;verticalAlign=top;childLayout=stackLayout;horizontal=1;startSize=26;horizontalStack=0;resizeParent=1;resizeParentMax=0;resizeLast=0;collapsible=1;marginBottom=0;whiteSpace=wrap;html=1;" vertex="1" parent="1">
          <mxGeometry x="230" y="430" width="210" height="134" as="geometry" />
        </mxCell>
        <mxCell id="7gfySwXnlS-Ip5x9oLkc-11" value="" style="line;strokeWidth=1;fillColor=none;align=left;verticalAlign=middle;spacingTop=-1;spacingLeft=3;spacingRight=3;rotatable=0;labelPosition=right;points=[];portConstraint=eastwest;strokeColor=inherit;" vertex="1" parent="7gfySwXnlS-Ip5x9oLkc-9">
          <mxGeometry y="26" width="210" height="8" as="geometry" />
        </mxCell>
        <mxCell id="7gfySwXnlS-Ip5x9oLkc-12" value="+ SetName: void&amp;nbsp;&lt;div&gt;+ SetVolume: void&lt;/div&gt;&lt;div&gt;+ SetUpShortcut: void&lt;/div&gt;&lt;div&gt;+ SetDownShortcut: void&amp;nbsp;&lt;/div&gt;&lt;div&gt;+ SetShieldShortcut: void&lt;/div&gt;&lt;div&gt;+ SaveSettings&lt;/div&gt;" style="text;strokeColor=none;fillColor=none;align=left;verticalAlign=top;spacingLeft=4;spacingRight=4;overflow=hidden;rotatable=0;points=[[0,0.5],[1,0.5]];portConstraint=eastwest;whiteSpace=wrap;html=1;" vertex="1" parent="7gfySwXnlS-Ip5x9oLkc-9">
          <mxGeometry y="34" width="210" height="100" as="geometry" />
        </mxCell>
        <mxCell id="7gfySwXnlS-Ip5x9oLkc-17" value="" style="endArrow=open;html=1;endSize=12;startArrow=diamondThin;startSize=14;startFill=0;edgeStyle=orthogonalEdgeStyle;align=left;verticalAlign=bottom;rounded=0;entryX=0;entryY=0.5;entryDx=0;entryDy=0;" edge="1" parent="1">
          <mxGeometry x="-1" y="3" relative="1" as="geometry">
            <mxPoint x="670" y="280" as="sourcePoint" />
            <mxPoint x="740" y="299" as="targetPoint" />
            <Array as="points">
              <mxPoint x="720" y="280" />
              <mxPoint x="720" y="299" />
            </Array>
          </mxGeometry>
        </mxCell>
        <mxCell id="7gfySwXnlS-Ip5x9oLkc-19" value="ConcreteCommands" style="swimlane;fontStyle=1;align=center;verticalAlign=top;childLayout=stackLayout;horizontal=1;startSize=26;horizontalStack=0;resizeParent=1;resizeParentMax=0;resizeLast=0;collapsible=1;marginBottom=0;whiteSpace=wrap;html=1;" vertex="1" parent="1">
          <mxGeometry x="730" y="406" width="180" height="124" as="geometry" />
        </mxCell>
        <mxCell id="7gfySwXnlS-Ip5x9oLkc-21" value="" style="line;strokeWidth=1;fillColor=none;align=left;verticalAlign=middle;spacingTop=-1;spacingLeft=3;spacingRight=3;rotatable=0;labelPosition=right;points=[];portConstraint=eastwest;strokeColor=inherit;" vertex="1" parent="7gfySwXnlS-Ip5x9oLkc-19">
          <mxGeometry y="26" width="180" height="8" as="geometry" />
        </mxCell>
        <mxCell id="7gfySwXnlS-Ip5x9oLkc-22" value="+ SetNameCommand&lt;div&gt;+ SetVolumeCommand&lt;/div&gt;&lt;div&gt;+ SetShortcutCommand&lt;/div&gt;&lt;div&gt;+ SetSettingsCommand&lt;/div&gt;&lt;div&gt;+ DeleteHighscoreCommand&lt;/div&gt;" style="text;strokeColor=none;fillColor=none;align=left;verticalAlign=top;spacingLeft=4;spacingRight=4;overflow=hidden;rotatable=0;points=[[0,0.5],[1,0.5]];portConstraint=eastwest;whiteSpace=wrap;html=1;" vertex="1" parent="7gfySwXnlS-Ip5x9oLkc-19">
          <mxGeometry y="34" width="180" height="90" as="geometry" />
        </mxCell>
        <mxCell id="7gfySwXnlS-Ip5x9oLkc-23" value="" style="endArrow=block;endSize=16;endFill=0;html=1;rounded=0;entryX=0.522;entryY=0.94;entryDx=0;entryDy=0;entryPerimeter=0;exitX=0.5;exitY=0;exitDx=0;exitDy=0;" edge="1" parent="1" source="7gfySwXnlS-Ip5x9oLkc-19" target="xYVuh7y8W_hCmnlhNMNl-5">
          <mxGeometry width="160" relative="1" as="geometry">
            <mxPoint x="812" y="400" as="sourcePoint" />
            <mxPoint x="670" y="390" as="targetPoint" />
          </mxGeometry>
        </mxCell>
        <mxCell id="7gfySwXnlS-Ip5x9oLkc-24" value="Receive" style="endArrow=open;endSize=12;dashed=1;html=1;rounded=0;entryX=1;entryY=0.5;entryDx=0;entryDy=0;exitX=0;exitY=0.25;exitDx=0;exitDy=0;" edge="1" parent="1" source="7gfySwXnlS-Ip5x9oLkc-19" target="7gfySwXnlS-Ip5x9oLkc-18">
          <mxGeometry width="160" relative="1" as="geometry">
            <mxPoint x="530" y="370" as="sourcePoint" />
            <mxPoint x="690" y="370" as="targetPoint" />
          </mxGeometry>
        </mxCell>
        <mxCell id="7gfySwXnlS-Ip5x9oLkc-27" value="" style="endArrow=block;endFill=1;html=1;edgeStyle=orthogonalEdgeStyle;align=left;verticalAlign=top;rounded=0;entryX=0.137;entryY=1.004;entryDx=0;entryDy=0;entryPerimeter=0;exitX=0.5;exitY=0;exitDx=0;exitDy=0;" edge="1" parent="1" source="nixui0lmoN9sBxmVn7yY-5" target="7gfySwXnlS-Ip5x9oLkc-18">
          <mxGeometry x="-1" relative="1" as="geometry">
            <mxPoint x="340.0769230769233" y="90" as="sourcePoint" />
            <mxPoint x="190" y="200" as="targetPoint" />
            <Array as="points">
              <mxPoint x="238" y="750" />
            </Array>
          </mxGeometry>
        </mxCell>
        <mxCell id="7gfySwXnlS-Ip5x9oLkc-29" value="Instantiate" style="endArrow=open;endSize=12;dashed=1;html=1;rounded=0;exitX=0.75;exitY=0;exitDx=0;exitDy=0;entryX=0.153;entryY=1.038;entryDx=0;entryDy=0;entryPerimeter=0;" edge="1" parent="1" source="nixui0lmoN9sBxmVn7yY-5" target="7gfySwXnlS-Ip5x9oLkc-22">
          <mxGeometry width="160" relative="1" as="geometry">
            <mxPoint x="381.0350000000003" y="90.2399999999999" as="sourcePoint" />
            <mxPoint x="710" y="360" as="targetPoint" />
            <Array as="points">
              <mxPoint x="260" y="660" />
              <mxPoint x="758" y="660" />
            </Array>
          </mxGeometry>
        </mxCell>
        <mxCell id="nixui0lmoN9sBxmVn7yY-1" value="Controller&amp;nbsp;" style="rounded=0;whiteSpace=wrap;html=1;verticalAlign=top;" vertex="1" parent="1">
          <mxGeometry x="-610" y="370" width="700" height="620" as="geometry" />
        </mxCell>
        <mxCell id="nixui0lmoN9sBxmVn7yY-2" value="View" style="rounded=0;whiteSpace=wrap;html=1;verticalAlign=top;" vertex="1" parent="1">
          <mxGeometry x="-510" y="1010" width="570" height="440" as="geometry" />
        </mxCell>
        <mxCell id="nixui0lmoN9sBxmVn7yY-4" style="edgeStyle=orthogonalEdgeStyle;rounded=0;orthogonalLoop=1;jettySize=auto;html=1;exitX=0;exitY=0.5;exitDx=0;exitDy=0;entryX=0.873;entryY=0.051;entryDx=0;entryDy=0;entryPerimeter=0;" edge="1" parent="1" source="nixui0lmoN9sBxmVn7yY-5" target="nixui0lmoN9sBxmVn7yY-73">
          <mxGeometry relative="1" as="geometry">
            <Array as="points">
              <mxPoint x="110" y="785" />
              <mxPoint x="110" y="970" />
              <mxPoint x="-378" y="970" />
              <mxPoint x="-378" y="1050" />
            </Array>
          </mxGeometry>
        </mxCell>
        <mxCell id="nixui0lmoN9sBxmVn7yY-5" value="Unity" style="swimlane;fontStyle=1;align=center;verticalAlign=top;childLayout=stackLayout;horizontal=1;startSize=26;horizontalStack=0;resizeParent=1;resizeParentMax=0;resizeLast=0;collapsible=1;marginBottom=0;" collapsed="1" vertex="1" parent="1">
          <mxGeometry x="215" y="750" width="60" height="26" as="geometry">
            <mxRectangle x="650" y="290" width="160" height="86" as="alternateBounds" />
          </mxGeometry>
        </mxCell>
        <mxCell id="nixui0lmoN9sBxmVn7yY-6" value="+ field: type" style="text;strokeColor=none;fillColor=none;align=left;verticalAlign=top;spacingLeft=4;spacingRight=4;overflow=hidden;rotatable=0;points=[[0,0.5],[1,0.5]];portConstraint=eastwest;" vertex="1" parent="nixui0lmoN9sBxmVn7yY-5">
          <mxGeometry y="26" width="160" height="26" as="geometry" />
        </mxCell>
        <mxCell id="nixui0lmoN9sBxmVn7yY-7" value="" style="line;strokeWidth=1;fillColor=none;align=left;verticalAlign=middle;spacingTop=-1;spacingLeft=3;spacingRight=3;rotatable=0;labelPosition=right;points=[];portConstraint=eastwest;" vertex="1" parent="nixui0lmoN9sBxmVn7yY-5">
          <mxGeometry y="52" width="160" height="8" as="geometry" />
        </mxCell>
        <mxCell id="nixui0lmoN9sBxmVn7yY-8" value="+ method(type): type" style="text;strokeColor=none;fillColor=none;align=left;verticalAlign=top;spacingLeft=4;spacingRight=4;overflow=hidden;rotatable=0;points=[[0,0.5],[1,0.5]];portConstraint=eastwest;" vertex="1" parent="nixui0lmoN9sBxmVn7yY-5">
          <mxGeometry y="60" width="160" height="26" as="geometry" />
        </mxCell>
        <mxCell id="nixui0lmoN9sBxmVn7yY-9" value="CoinStash" style="swimlane;fontStyle=1;align=center;verticalAlign=top;childLayout=stackLayout;horizontal=1;startSize=26;horizontalStack=0;resizeParent=1;resizeParentMax=0;resizeLast=0;collapsible=1;marginBottom=0;whiteSpace=wrap;html=1;" collapsed="1" vertex="1" parent="1">
          <mxGeometry x="-320" y="840" width="90" height="26" as="geometry">
            <mxRectangle x="180" y="400" width="160" height="86" as="alternateBounds" />
          </mxGeometry>
        </mxCell>
        <mxCell id="nixui0lmoN9sBxmVn7yY-10" value="+ field: type" style="text;strokeColor=none;fillColor=none;align=left;verticalAlign=top;spacingLeft=4;spacingRight=4;overflow=hidden;rotatable=0;points=[[0,0.5],[1,0.5]];portConstraint=eastwest;whiteSpace=wrap;html=1;" vertex="1" parent="nixui0lmoN9sBxmVn7yY-9">
          <mxGeometry y="26" width="160" height="26" as="geometry" />
        </mxCell>
        <mxCell id="nixui0lmoN9sBxmVn7yY-11" value="" style="line;strokeWidth=1;fillColor=none;align=left;verticalAlign=middle;spacingTop=-1;spacingLeft=3;spacingRight=3;rotatable=0;labelPosition=right;points=[];portConstraint=eastwest;strokeColor=inherit;" vertex="1" parent="nixui0lmoN9sBxmVn7yY-9">
          <mxGeometry y="52" width="160" height="8" as="geometry" />
        </mxCell>
        <mxCell id="nixui0lmoN9sBxmVn7yY-12" value="+ method(type): type" style="text;strokeColor=none;fillColor=none;align=left;verticalAlign=top;spacingLeft=4;spacingRight=4;overflow=hidden;rotatable=0;points=[[0,0.5],[1,0.5]];portConstraint=eastwest;whiteSpace=wrap;html=1;" vertex="1" parent="nixui0lmoN9sBxmVn7yY-9">
          <mxGeometry y="60" width="160" height="26" as="geometry" />
        </mxCell>
        <mxCell id="nixui0lmoN9sBxmVn7yY-13" style="edgeStyle=orthogonalEdgeStyle;rounded=0;orthogonalLoop=1;jettySize=auto;html=1;exitX=0.5;exitY=0;exitDx=0;exitDy=0;entryX=0.5;entryY=1;entryDx=0;entryDy=0;" edge="1" parent="1" source="nixui0lmoN9sBxmVn7yY-14" target="nixui0lmoN9sBxmVn7yY-9">
          <mxGeometry relative="1" as="geometry" />
        </mxCell>
        <mxCell id="nixui0lmoN9sBxmVn7yY-14" value="ScoreController" style="swimlane;fontStyle=1;align=center;verticalAlign=top;childLayout=stackLayout;horizontal=1;startSize=26;horizontalStack=0;resizeParent=1;resizeParentMax=0;resizeLast=0;collapsible=1;marginBottom=0;whiteSpace=wrap;html=1;" collapsed="1" vertex="1" parent="1">
          <mxGeometry x="-325" y="918" width="110" height="26" as="geometry">
            <mxRectangle x="385" y="400" width="160" height="86" as="alternateBounds" />
          </mxGeometry>
        </mxCell>
        <mxCell id="nixui0lmoN9sBxmVn7yY-15" value="+ field: type" style="text;strokeColor=none;fillColor=none;align=left;verticalAlign=top;spacingLeft=4;spacingRight=4;overflow=hidden;rotatable=0;points=[[0,0.5],[1,0.5]];portConstraint=eastwest;whiteSpace=wrap;html=1;" vertex="1" parent="nixui0lmoN9sBxmVn7yY-14">
          <mxGeometry y="26" width="160" height="26" as="geometry" />
        </mxCell>
        <mxCell id="nixui0lmoN9sBxmVn7yY-16" value="" style="line;strokeWidth=1;fillColor=none;align=left;verticalAlign=middle;spacingTop=-1;spacingLeft=3;spacingRight=3;rotatable=0;labelPosition=right;points=[];portConstraint=eastwest;strokeColor=inherit;" vertex="1" parent="nixui0lmoN9sBxmVn7yY-14">
          <mxGeometry y="52" width="160" height="8" as="geometry" />
        </mxCell>
        <mxCell id="nixui0lmoN9sBxmVn7yY-17" value="+ method(type): type" style="text;strokeColor=none;fillColor=none;align=left;verticalAlign=top;spacingLeft=4;spacingRight=4;overflow=hidden;rotatable=0;points=[[0,0.5],[1,0.5]];portConstraint=eastwest;whiteSpace=wrap;html=1;" vertex="1" parent="nixui0lmoN9sBxmVn7yY-14">
          <mxGeometry y="60" width="160" height="26" as="geometry" />
        </mxCell>
        <mxCell id="nixui0lmoN9sBxmVn7yY-18" style="edgeStyle=orthogonalEdgeStyle;rounded=0;orthogonalLoop=1;jettySize=auto;html=1;exitX=0;exitY=0.25;exitDx=0;exitDy=0;entryX=0.75;entryY=1;entryDx=0;entryDy=0;" edge="1" parent="1" source="nixui0lmoN9sBxmVn7yY-19" target="nixui0lmoN9sBxmVn7yY-69">
          <mxGeometry relative="1" as="geometry">
            <Array as="points">
              <mxPoint x="-660" y="682" />
              <mxPoint x="-660" y="1460" />
              <mxPoint x="-35" y="1460" />
            </Array>
          </mxGeometry>
        </mxCell>
        <mxCell id="nixui0lmoN9sBxmVn7yY-19" value="&lt;div&gt;Platform Controller&lt;/div&gt;" style="swimlane;fontStyle=1;align=center;verticalAlign=top;childLayout=stackLayout;horizontal=1;startSize=26;horizontalStack=0;resizeParent=1;resizeParentMax=0;resizeLast=0;collapsible=1;marginBottom=0;whiteSpace=wrap;html=1;" vertex="1" parent="1">
          <mxGeometry x="-590" y="660" width="175" height="88" as="geometry">
            <mxRectangle x="205" y="296" width="70" height="26" as="alternateBounds" />
          </mxGeometry>
        </mxCell>
        <mxCell id="nixui0lmoN9sBxmVn7yY-20" value="+ ObstacleSpawnTime: float&lt;div&gt;+ ObstacleSpeed&lt;span style=&quot;background-color: initial;&quot;&gt;: float&lt;/span&gt;&lt;br&gt;&lt;/div&gt;&lt;div&gt;+ ObstaclePrefab&lt;span style=&quot;background-color: initial;&quot;&gt;: prefab&lt;/span&gt;&lt;br&gt;&lt;/div&gt;" style="text;strokeColor=none;fillColor=none;align=left;verticalAlign=top;spacingLeft=4;spacingRight=4;overflow=hidden;rotatable=0;points=[[0,0.5],[1,0.5]];portConstraint=eastwest;whiteSpace=wrap;html=1;" vertex="1" parent="nixui0lmoN9sBxmVn7yY-19">
          <mxGeometry y="26" width="175" height="54" as="geometry" />
        </mxCell>
        <mxCell id="nixui0lmoN9sBxmVn7yY-21" value="" style="line;strokeWidth=1;fillColor=none;align=left;verticalAlign=middle;spacingTop=-1;spacingLeft=3;spacingRight=3;rotatable=0;labelPosition=right;points=[];portConstraint=eastwest;strokeColor=inherit;" vertex="1" parent="nixui0lmoN9sBxmVn7yY-19">
          <mxGeometry y="80" width="175" height="8" as="geometry" />
        </mxCell>
        <mxCell id="nixui0lmoN9sBxmVn7yY-22" style="edgeStyle=orthogonalEdgeStyle;rounded=0;orthogonalLoop=1;jettySize=auto;html=1;exitX=0;exitY=0.5;exitDx=0;exitDy=0;entryX=0.907;entryY=-0.049;entryDx=0;entryDy=0;entryPerimeter=0;" edge="1" parent="1" source="nixui0lmoN9sBxmVn7yY-24" target="nixui0lmoN9sBxmVn7yY-28">
          <mxGeometry relative="1" as="geometry" />
        </mxCell>
        <mxCell id="nixui0lmoN9sBxmVn7yY-23" style="edgeStyle=orthogonalEdgeStyle;rounded=0;orthogonalLoop=1;jettySize=auto;html=1;exitX=0.25;exitY=0;exitDx=0;exitDy=0;entryX=0.75;entryY=1;entryDx=0;entryDy=0;" edge="1" parent="1" source="nixui0lmoN9sBxmVn7yY-24" target="nixui0lmoN9sBxmVn7yY-104">
          <mxGeometry relative="1" as="geometry">
            <Array as="points">
              <mxPoint x="-107" y="960" />
              <mxPoint x="-463" y="960" />
            </Array>
          </mxGeometry>
        </mxCell>
        <mxCell id="nixui0lmoN9sBxmVn7yY-24" value="Player" style="swimlane;fontStyle=1;align=center;verticalAlign=top;childLayout=stackLayout;horizontal=1;startSize=26;horizontalStack=0;resizeParent=1;resizeParentMax=0;resizeLast=0;collapsible=1;marginBottom=0;" collapsed="1" vertex="1" parent="1">
          <mxGeometry x="-140" y="1076" width="130" height="26" as="geometry">
            <mxRectangle x="520" y="40" width="160" height="86" as="alternateBounds" />
          </mxGeometry>
        </mxCell>
        <mxCell id="nixui0lmoN9sBxmVn7yY-25" value="+ field: type" style="text;strokeColor=none;fillColor=none;align=left;verticalAlign=top;spacingLeft=4;spacingRight=4;overflow=hidden;rotatable=0;points=[[0,0.5],[1,0.5]];portConstraint=eastwest;" vertex="1" parent="nixui0lmoN9sBxmVn7yY-24">
          <mxGeometry y="26" width="160" height="26" as="geometry" />
        </mxCell>
        <mxCell id="nixui0lmoN9sBxmVn7yY-26" value="" style="line;strokeWidth=1;fillColor=none;align=left;verticalAlign=middle;spacingTop=-1;spacingLeft=3;spacingRight=3;rotatable=0;labelPosition=right;points=[];portConstraint=eastwest;" vertex="1" parent="nixui0lmoN9sBxmVn7yY-24">
          <mxGeometry y="52" width="160" height="8" as="geometry" />
        </mxCell>
        <mxCell id="nixui0lmoN9sBxmVn7yY-27" value="+ method(type): type" style="text;strokeColor=none;fillColor=none;align=left;verticalAlign=top;spacingLeft=4;spacingRight=4;overflow=hidden;rotatable=0;points=[[0,0.5],[1,0.5]];portConstraint=eastwest;" vertex="1" parent="nixui0lmoN9sBxmVn7yY-24">
          <mxGeometry y="60" width="160" height="26" as="geometry" />
        </mxCell>
        <mxCell id="nixui0lmoN9sBxmVn7yY-28" value="2D box Collision" style="swimlane;fontStyle=1;align=center;verticalAlign=top;childLayout=stackLayout;horizontal=1;startSize=26;horizontalStack=0;resizeParent=1;resizeParentMax=0;resizeLast=0;collapsible=1;marginBottom=0;" collapsed="1" vertex="1" parent="1">
          <mxGeometry x="-320" y="1310" width="130" height="26" as="geometry">
            <mxRectangle x="220" y="920" width="160" height="86" as="alternateBounds" />
          </mxGeometry>
        </mxCell>
        <mxCell id="nixui0lmoN9sBxmVn7yY-29" value="" style="line;strokeWidth=1;fillColor=none;align=left;verticalAlign=middle;spacingTop=-1;spacingLeft=3;spacingRight=3;rotatable=0;labelPosition=right;points=[];portConstraint=eastwest;" vertex="1" parent="nixui0lmoN9sBxmVn7yY-28">
          <mxGeometry y="26" width="160" height="8" as="geometry" />
        </mxCell>
        <mxCell id="nixui0lmoN9sBxmVn7yY-30" value="+ field: type" style="text;strokeColor=none;fillColor=none;align=left;verticalAlign=top;spacingLeft=4;spacingRight=4;overflow=hidden;rotatable=0;points=[[0,0.5],[1,0.5]];portConstraint=eastwest;" vertex="1" parent="nixui0lmoN9sBxmVn7yY-28">
          <mxGeometry y="34" width="160" height="26" as="geometry" />
        </mxCell>
        <mxCell id="nixui0lmoN9sBxmVn7yY-31" value="+ method(type): type" style="text;strokeColor=none;fillColor=none;align=left;verticalAlign=top;spacingLeft=4;spacingRight=4;overflow=hidden;rotatable=0;points=[[0,0.5],[1,0.5]];portConstraint=eastwest;" vertex="1" parent="nixui0lmoN9sBxmVn7yY-28">
          <mxGeometry y="60" width="160" height="26" as="geometry" />
        </mxCell>
        <mxCell id="nixui0lmoN9sBxmVn7yY-32" style="edgeStyle=orthogonalEdgeStyle;rounded=0;orthogonalLoop=1;jettySize=auto;html=1;exitX=0;exitY=0;exitDx=0;exitDy=0;" edge="1" parent="1" source="nixui0lmoN9sBxmVn7yY-38" target="nixui0lmoN9sBxmVn7yY-85">
          <mxGeometry relative="1" as="geometry">
            <Array as="points">
              <mxPoint x="-465" y="1190" />
              <mxPoint x="-490" y="1190" />
              <mxPoint x="-490" y="1000" />
              <mxPoint x="-390" y="1000" />
              <mxPoint x="-390" y="724" />
            </Array>
          </mxGeometry>
        </mxCell>
        <mxCell id="nixui0lmoN9sBxmVn7yY-33" style="edgeStyle=orthogonalEdgeStyle;rounded=0;orthogonalLoop=1;jettySize=auto;html=1;exitX=1;exitY=1;exitDx=0;exitDy=0;entryX=0.151;entryY=0.082;entryDx=0;entryDy=0;entryPerimeter=0;" edge="1" parent="1" source="nixui0lmoN9sBxmVn7yY-38" target="nixui0lmoN9sBxmVn7yY-54">
          <mxGeometry relative="1" as="geometry" />
        </mxCell>
        <mxCell id="nixui0lmoN9sBxmVn7yY-34" style="edgeStyle=orthogonalEdgeStyle;rounded=0;orthogonalLoop=1;jettySize=auto;html=1;exitX=0;exitY=0;exitDx=0;exitDy=0;entryX=0;entryY=0.5;entryDx=0;entryDy=0;" edge="1" parent="1" source="nixui0lmoN9sBxmVn7yY-38" target="nixui0lmoN9sBxmVn7yY-73">
          <mxGeometry relative="1" as="geometry">
            <Array as="points">
              <mxPoint x="-480" y="1176" />
              <mxPoint x="-480" y="1126" />
              <mxPoint x="-485" y="1126" />
              <mxPoint x="-485" y="1063" />
            </Array>
          </mxGeometry>
        </mxCell>
        <mxCell id="nixui0lmoN9sBxmVn7yY-35" style="edgeStyle=orthogonalEdgeStyle;rounded=0;orthogonalLoop=1;jettySize=auto;html=1;exitX=1;exitY=0;exitDx=0;exitDy=0;entryX=0.5;entryY=1;entryDx=0;entryDy=0;" edge="1" parent="1" source="nixui0lmoN9sBxmVn7yY-38" target="nixui0lmoN9sBxmVn7yY-14">
          <mxGeometry relative="1" as="geometry">
            <Array as="points">
              <mxPoint x="-270" y="1176" />
            </Array>
          </mxGeometry>
        </mxCell>
        <mxCell id="nixui0lmoN9sBxmVn7yY-36" style="edgeStyle=orthogonalEdgeStyle;rounded=0;orthogonalLoop=1;jettySize=auto;html=1;exitX=1;exitY=0.5;exitDx=0;exitDy=0;" edge="1" parent="1">
          <mxGeometry relative="1" as="geometry">
            <mxPoint x="-385" y="1183" as="sourcePoint" />
            <mxPoint x="245" y="970" as="targetPoint" />
          </mxGeometry>
        </mxCell>
        <mxCell id="nixui0lmoN9sBxmVn7yY-37" style="edgeStyle=orthogonalEdgeStyle;rounded=0;orthogonalLoop=1;jettySize=auto;html=1;exitX=0.25;exitY=1;exitDx=0;exitDy=0;entryX=0;entryY=1;entryDx=0;entryDy=0;" edge="1" parent="1" source="nixui0lmoN9sBxmVn7yY-38" target="nixui0lmoN9sBxmVn7yY-61">
          <mxGeometry relative="1" as="geometry">
            <Array as="points">
              <mxPoint x="-530" y="1202" />
              <mxPoint x="-530" y="1356" />
              <mxPoint x="-140" y="1356" />
            </Array>
          </mxGeometry>
        </mxCell>
        <mxCell id="nixui0lmoN9sBxmVn7yY-38" value="Game" style="swimlane;fontStyle=1;align=center;verticalAlign=top;childLayout=stackLayout;horizontal=1;startSize=26;horizontalStack=0;resizeParent=1;resizeParentMax=0;resizeLast=0;collapsible=1;marginBottom=0;whiteSpace=wrap;html=1;" collapsed="1" vertex="1" parent="1">
          <mxGeometry x="-465" y="1176" width="80" height="26" as="geometry">
            <mxRectangle x="225" y="170" width="160" height="86" as="alternateBounds" />
          </mxGeometry>
        </mxCell>
        <mxCell id="nixui0lmoN9sBxmVn7yY-39" value="+ field: type" style="text;strokeColor=none;fillColor=none;align=left;verticalAlign=top;spacingLeft=4;spacingRight=4;overflow=hidden;rotatable=0;points=[[0,0.5],[1,0.5]];portConstraint=eastwest;whiteSpace=wrap;html=1;" vertex="1" parent="nixui0lmoN9sBxmVn7yY-38">
          <mxGeometry y="26" width="160" height="26" as="geometry" />
        </mxCell>
        <mxCell id="nixui0lmoN9sBxmVn7yY-40" value="" style="line;strokeWidth=1;fillColor=none;align=left;verticalAlign=middle;spacingTop=-1;spacingLeft=3;spacingRight=3;rotatable=0;labelPosition=right;points=[];portConstraint=eastwest;strokeColor=inherit;" vertex="1" parent="nixui0lmoN9sBxmVn7yY-38">
          <mxGeometry y="52" width="160" height="8" as="geometry" />
        </mxCell>
        <mxCell id="nixui0lmoN9sBxmVn7yY-41" value="+ method(type): type" style="text;strokeColor=none;fillColor=none;align=left;verticalAlign=top;spacingLeft=4;spacingRight=4;overflow=hidden;rotatable=0;points=[[0,0.5],[1,0.5]];portConstraint=eastwest;whiteSpace=wrap;html=1;" vertex="1" parent="nixui0lmoN9sBxmVn7yY-38">
          <mxGeometry y="60" width="160" height="26" as="geometry" />
        </mxCell>
        <mxCell id="nixui0lmoN9sBxmVn7yY-42" style="edgeStyle=orthogonalEdgeStyle;rounded=0;orthogonalLoop=1;jettySize=auto;html=1;exitX=1;exitY=0;exitDx=0;exitDy=0;entryX=0;entryY=0.75;entryDx=0;entryDy=0;" edge="1" parent="1" source="nixui0lmoN9sBxmVn7yY-44" target="nixui0lmoN9sBxmVn7yY-48">
          <mxGeometry relative="1" as="geometry">
            <Array as="points">
              <mxPoint x="-315" y="1123" />
              <mxPoint x="100" y="1123" />
              <mxPoint x="100" y="872" />
            </Array>
          </mxGeometry>
        </mxCell>
        <mxCell id="nixui0lmoN9sBxmVn7yY-43" style="edgeStyle=orthogonalEdgeStyle;rounded=0;orthogonalLoop=1;jettySize=auto;html=1;exitX=0;exitY=0.25;exitDx=0;exitDy=0;entryX=0.25;entryY=0;entryDx=0;entryDy=0;" edge="1" parent="1" source="nixui0lmoN9sBxmVn7yY-44" target="nixui0lmoN9sBxmVn7yY-81">
          <mxGeometry relative="1" as="geometry">
            <Array as="points">
              <mxPoint x="-720" y="1116" />
              <mxPoint x="-720" y="310" />
              <mxPoint x="-285" y="310" />
            </Array>
          </mxGeometry>
        </mxCell>
        <mxCell id="nixui0lmoN9sBxmVn7yY-44" value="Title Screen(Scene)" style="swimlane;fontStyle=1;align=center;verticalAlign=top;childLayout=stackLayout;horizontal=1;startSize=0;horizontalStack=0;resizeParent=1;resizeParentMax=0;resizeLast=0;collapsible=1;marginBottom=0;" collapsed="1" vertex="1" parent="1">
          <mxGeometry x="-465" y="1110" width="150" height="26" as="geometry">
            <mxRectangle x="180" y="160" width="160" height="86" as="alternateBounds" />
          </mxGeometry>
        </mxCell>
        <mxCell id="nixui0lmoN9sBxmVn7yY-45" value="+ field: type" style="text;strokeColor=none;fillColor=none;align=left;verticalAlign=top;spacingLeft=4;spacingRight=4;overflow=hidden;rotatable=0;points=[[0,0.5],[1,0.5]];portConstraint=eastwest;" vertex="1" parent="nixui0lmoN9sBxmVn7yY-44">
          <mxGeometry y="26" width="160" height="26" as="geometry" />
        </mxCell>
        <mxCell id="nixui0lmoN9sBxmVn7yY-46" value="" style="line;strokeWidth=1;fillColor=none;align=left;verticalAlign=middle;spacingTop=-1;spacingLeft=3;spacingRight=3;rotatable=0;labelPosition=right;points=[];portConstraint=eastwest;" vertex="1" parent="nixui0lmoN9sBxmVn7yY-44">
          <mxGeometry y="52" width="160" height="8" as="geometry" />
        </mxCell>
        <mxCell id="nixui0lmoN9sBxmVn7yY-47" value="+ method(type): type" style="text;strokeColor=none;fillColor=none;align=left;verticalAlign=top;spacingLeft=4;spacingRight=4;overflow=hidden;rotatable=0;points=[[0,0.5],[1,0.5]];portConstraint=eastwest;" vertex="1" parent="nixui0lmoN9sBxmVn7yY-44">
          <mxGeometry y="60" width="160" height="26" as="geometry" />
        </mxCell>
        <mxCell id="nixui0lmoN9sBxmVn7yY-48" value="Sound" style="swimlane;fontStyle=1;align=center;verticalAlign=top;childLayout=stackLayout;horizontal=1;startSize=26;horizontalStack=0;resizeParent=1;resizeParentMax=0;resizeLast=0;collapsible=1;marginBottom=0;" collapsed="1" vertex="1" parent="1">
          <mxGeometry x="190" y="852" width="100" height="26" as="geometry">
            <mxRectangle x="745" y="400" width="160" height="86" as="alternateBounds" />
          </mxGeometry>
        </mxCell>
        <mxCell id="nixui0lmoN9sBxmVn7yY-49" value="+ field: type" style="text;strokeColor=none;fillColor=none;align=left;verticalAlign=top;spacingLeft=4;spacingRight=4;overflow=hidden;rotatable=0;points=[[0,0.5],[1,0.5]];portConstraint=eastwest;" vertex="1" parent="nixui0lmoN9sBxmVn7yY-48">
          <mxGeometry y="26" width="160" height="26" as="geometry" />
        </mxCell>
        <mxCell id="nixui0lmoN9sBxmVn7yY-50" value="" style="line;strokeWidth=1;fillColor=none;align=left;verticalAlign=middle;spacingTop=-1;spacingLeft=3;spacingRight=3;rotatable=0;labelPosition=right;points=[];portConstraint=eastwest;" vertex="1" parent="nixui0lmoN9sBxmVn7yY-48">
          <mxGeometry y="52" width="160" height="8" as="geometry" />
        </mxCell>
        <mxCell id="nixui0lmoN9sBxmVn7yY-51" value="+ method(type): type" style="text;strokeColor=none;fillColor=none;align=left;verticalAlign=top;spacingLeft=4;spacingRight=4;overflow=hidden;rotatable=0;points=[[0,0.5],[1,0.5]];portConstraint=eastwest;" vertex="1" parent="nixui0lmoN9sBxmVn7yY-48">
          <mxGeometry y="60" width="160" height="26" as="geometry" />
        </mxCell>
        <mxCell id="nixui0lmoN9sBxmVn7yY-52" style="edgeStyle=orthogonalEdgeStyle;rounded=0;orthogonalLoop=1;jettySize=auto;html=1;exitX=0.5;exitY=1;exitDx=0;exitDy=0;" edge="1" parent="1">
          <mxGeometry relative="1" as="geometry">
            <mxPoint x="113" y="1016" as="sourcePoint" />
            <mxPoint x="113" y="1016" as="targetPoint" />
          </mxGeometry>
        </mxCell>
        <mxCell id="nixui0lmoN9sBxmVn7yY-53" style="edgeStyle=orthogonalEdgeStyle;rounded=0;orthogonalLoop=1;jettySize=auto;html=1;exitX=0.123;exitY=1.005;exitDx=0;exitDy=0;entryX=0;entryY=0.5;entryDx=0;entryDy=0;exitPerimeter=0;" edge="1" parent="1" source="nixui0lmoN9sBxmVn7yY-54" target="nixui0lmoN9sBxmVn7yY-20">
          <mxGeometry relative="1" as="geometry">
            <Array as="points">
              <mxPoint x="-330" y="1274" />
              <mxPoint x="-300" y="1274" />
              <mxPoint x="-300" y="1294" />
              <mxPoint x="-630" y="1294" />
              <mxPoint x="-630" y="713" />
            </Array>
          </mxGeometry>
        </mxCell>
        <mxCell id="nixui0lmoN9sBxmVn7yY-54" value="Platform Spawners" style="swimlane;fontStyle=1;align=center;verticalAlign=top;childLayout=stackLayout;horizontal=1;startSize=26;horizontalStack=0;resizeParent=1;resizeParentMax=0;resizeLast=0;collapsible=1;marginBottom=0;" collapsed="1" vertex="1" parent="1">
          <mxGeometry x="-345" y="1222" width="125" height="26" as="geometry">
            <mxRectangle x="600" y="290" width="160" height="86" as="alternateBounds" />
          </mxGeometry>
        </mxCell>
        <mxCell id="nixui0lmoN9sBxmVn7yY-55" value="+ field: type" style="text;strokeColor=none;fillColor=none;align=left;verticalAlign=top;spacingLeft=4;spacingRight=4;overflow=hidden;rotatable=0;points=[[0,0.5],[1,0.5]];portConstraint=eastwest;" vertex="1" parent="nixui0lmoN9sBxmVn7yY-54">
          <mxGeometry y="26" width="160" height="26" as="geometry" />
        </mxCell>
        <mxCell id="nixui0lmoN9sBxmVn7yY-56" value="" style="line;strokeWidth=1;fillColor=none;align=left;verticalAlign=middle;spacingTop=-1;spacingLeft=3;spacingRight=3;rotatable=0;labelPosition=right;points=[];portConstraint=eastwest;" vertex="1" parent="nixui0lmoN9sBxmVn7yY-54">
          <mxGeometry y="52" width="160" height="8" as="geometry" />
        </mxCell>
        <mxCell id="nixui0lmoN9sBxmVn7yY-57" value="+ method(type): type" style="text;strokeColor=none;fillColor=none;align=left;verticalAlign=top;spacingLeft=4;spacingRight=4;overflow=hidden;rotatable=0;points=[[0,0.5],[1,0.5]];portConstraint=eastwest;" vertex="1" parent="nixui0lmoN9sBxmVn7yY-54">
          <mxGeometry y="60" width="160" height="26" as="geometry" />
        </mxCell>
        <mxCell id="nixui0lmoN9sBxmVn7yY-58" value="CameraController" style="swimlane;fontStyle=1;align=center;verticalAlign=top;childLayout=stackLayout;horizontal=1;startSize=26;horizontalStack=0;resizeParent=1;resizeParentMax=0;resizeLast=0;collapsible=1;marginBottom=0;" vertex="1" parent="1">
          <mxGeometry x="-325" y="540" width="160" height="60" as="geometry">
            <mxRectangle x="305" y="250" width="130" height="26" as="alternateBounds" />
          </mxGeometry>
        </mxCell>
        <mxCell id="nixui0lmoN9sBxmVn7yY-59" value="+ Smooth: float" style="text;strokeColor=none;fillColor=none;align=left;verticalAlign=top;spacingLeft=4;spacingRight=4;overflow=hidden;rotatable=0;points=[[0,0.5],[1,0.5]];portConstraint=eastwest;" vertex="1" parent="nixui0lmoN9sBxmVn7yY-58">
          <mxGeometry y="26" width="160" height="26" as="geometry" />
        </mxCell>
        <mxCell id="nixui0lmoN9sBxmVn7yY-60" value="" style="line;strokeWidth=1;fillColor=none;align=left;verticalAlign=middle;spacingTop=-1;spacingLeft=3;spacingRight=3;rotatable=0;labelPosition=right;points=[];portConstraint=eastwest;" vertex="1" parent="nixui0lmoN9sBxmVn7yY-58">
          <mxGeometry y="52" width="160" height="8" as="geometry" />
        </mxCell>
        <mxCell id="nixui0lmoN9sBxmVn7yY-61" value="Water" style="swimlane;fontStyle=1;align=center;verticalAlign=top;childLayout=stackLayout;horizontal=1;startSize=26;horizontalStack=0;resizeParent=1;resizeParentMax=0;resizeLast=0;collapsible=1;marginBottom=0;" collapsed="1" vertex="1" parent="1">
          <mxGeometry x="-140" y="1310" width="80" height="26" as="geometry">
            <mxRectangle x="330" y="420" width="160" height="86" as="alternateBounds" />
          </mxGeometry>
        </mxCell>
        <mxCell id="nixui0lmoN9sBxmVn7yY-62" value="+ field: type" style="text;strokeColor=none;fillColor=none;align=left;verticalAlign=top;spacingLeft=4;spacingRight=4;overflow=hidden;rotatable=0;points=[[0,0.5],[1,0.5]];portConstraint=eastwest;" vertex="1" parent="nixui0lmoN9sBxmVn7yY-61">
          <mxGeometry y="26" width="160" height="26" as="geometry" />
        </mxCell>
        <mxCell id="nixui0lmoN9sBxmVn7yY-63" value="" style="line;strokeWidth=1;fillColor=none;align=left;verticalAlign=middle;spacingTop=-1;spacingLeft=3;spacingRight=3;rotatable=0;labelPosition=right;points=[];portConstraint=eastwest;" vertex="1" parent="nixui0lmoN9sBxmVn7yY-61">
          <mxGeometry y="52" width="160" height="8" as="geometry" />
        </mxCell>
        <mxCell id="nixui0lmoN9sBxmVn7yY-64" value="+ method(type): type" style="text;strokeColor=none;fillColor=none;align=left;verticalAlign=top;spacingLeft=4;spacingRight=4;overflow=hidden;rotatable=0;points=[[0,0.5],[1,0.5]];portConstraint=eastwest;" vertex="1" parent="nixui0lmoN9sBxmVn7yY-61">
          <mxGeometry y="60" width="160" height="26" as="geometry" />
        </mxCell>
        <mxCell id="nixui0lmoN9sBxmVn7yY-65" value="Water Rise" style="swimlane;fontStyle=1;align=center;verticalAlign=top;childLayout=stackLayout;horizontal=1;startSize=26;horizontalStack=0;resizeParent=1;resizeParentMax=0;resizeLast=0;collapsible=1;marginBottom=0;" vertex="1" parent="1">
          <mxGeometry x="-582.5" y="540" width="160" height="60" as="geometry">
            <mxRectangle x="335" y="160" width="80" height="26" as="alternateBounds" />
          </mxGeometry>
        </mxCell>
        <mxCell id="nixui0lmoN9sBxmVn7yY-66" value="+ RiseSpeed: float" style="text;strokeColor=none;fillColor=none;align=left;verticalAlign=top;spacingLeft=4;spacingRight=4;overflow=hidden;rotatable=0;points=[[0,0.5],[1,0.5]];portConstraint=eastwest;" vertex="1" parent="nixui0lmoN9sBxmVn7yY-65">
          <mxGeometry y="26" width="160" height="26" as="geometry" />
        </mxCell>
        <mxCell id="nixui0lmoN9sBxmVn7yY-67" value="" style="line;strokeWidth=1;fillColor=none;align=left;verticalAlign=middle;spacingTop=-1;spacingLeft=3;spacingRight=3;rotatable=0;labelPosition=right;points=[];portConstraint=eastwest;" vertex="1" parent="nixui0lmoN9sBxmVn7yY-65">
          <mxGeometry y="52" width="160" height="8" as="geometry" />
        </mxCell>
        <mxCell id="nixui0lmoN9sBxmVn7yY-68" style="edgeStyle=orthogonalEdgeStyle;rounded=0;orthogonalLoop=1;jettySize=auto;html=1;exitX=0;exitY=0.5;exitDx=0;exitDy=0;entryX=1;entryY=0;entryDx=0;entryDy=0;" edge="1" parent="1" source="nixui0lmoN9sBxmVn7yY-69" target="nixui0lmoN9sBxmVn7yY-28">
          <mxGeometry relative="1" as="geometry" />
        </mxCell>
        <mxCell id="nixui0lmoN9sBxmVn7yY-69" value="Platforms" style="swimlane;fontStyle=1;align=center;verticalAlign=top;childLayout=stackLayout;horizontal=1;startSize=26;horizontalStack=0;resizeParent=1;resizeParentMax=0;resizeLast=0;collapsible=1;marginBottom=0;" collapsed="1" vertex="1" parent="1">
          <mxGeometry x="-140" y="1250" width="140" height="26" as="geometry">
            <mxRectangle x="15" y="810" width="160" height="86" as="alternateBounds" />
          </mxGeometry>
        </mxCell>
        <mxCell id="nixui0lmoN9sBxmVn7yY-70" value="+ field: type" style="text;strokeColor=none;fillColor=none;align=left;verticalAlign=top;spacingLeft=4;spacingRight=4;overflow=hidden;rotatable=0;points=[[0,0.5],[1,0.5]];portConstraint=eastwest;" vertex="1" parent="nixui0lmoN9sBxmVn7yY-69">
          <mxGeometry y="26" width="160" height="26" as="geometry" />
        </mxCell>
        <mxCell id="nixui0lmoN9sBxmVn7yY-71" value="" style="line;strokeWidth=1;fillColor=none;align=left;verticalAlign=middle;spacingTop=-1;spacingLeft=3;spacingRight=3;rotatable=0;labelPosition=right;points=[];portConstraint=eastwest;" vertex="1" parent="nixui0lmoN9sBxmVn7yY-69">
          <mxGeometry y="52" width="160" height="8" as="geometry" />
        </mxCell>
        <mxCell id="nixui0lmoN9sBxmVn7yY-72" value="+ method(type): type" style="text;strokeColor=none;fillColor=none;align=left;verticalAlign=top;spacingLeft=4;spacingRight=4;overflow=hidden;rotatable=0;points=[[0,0.5],[1,0.5]];portConstraint=eastwest;" vertex="1" parent="nixui0lmoN9sBxmVn7yY-69">
          <mxGeometry y="60" width="160" height="26" as="geometry" />
        </mxCell>
        <mxCell id="nixui0lmoN9sBxmVn7yY-73" value="Main Camera" style="swimlane;fontStyle=1;align=center;verticalAlign=top;childLayout=stackLayout;horizontal=1;startSize=26;horizontalStack=0;resizeParent=1;resizeParentMax=0;resizeLast=0;collapsible=1;marginBottom=0;" collapsed="1" vertex="1" parent="1">
          <mxGeometry x="-465" y="1050" width="100" height="26" as="geometry">
            <mxRectangle x="360" y="620" width="160" height="86" as="alternateBounds" />
          </mxGeometry>
        </mxCell>
        <mxCell id="nixui0lmoN9sBxmVn7yY-74" value="+ field: type" style="text;strokeColor=none;fillColor=none;align=left;verticalAlign=top;spacingLeft=4;spacingRight=4;overflow=hidden;rotatable=0;points=[[0,0.5],[1,0.5]];portConstraint=eastwest;" vertex="1" parent="nixui0lmoN9sBxmVn7yY-73">
          <mxGeometry y="26" width="160" height="26" as="geometry" />
        </mxCell>
        <mxCell id="nixui0lmoN9sBxmVn7yY-75" value="" style="line;strokeWidth=1;fillColor=none;align=left;verticalAlign=middle;spacingTop=-1;spacingLeft=3;spacingRight=3;rotatable=0;labelPosition=right;points=[];portConstraint=eastwest;" vertex="1" parent="nixui0lmoN9sBxmVn7yY-73">
          <mxGeometry y="52" width="160" height="8" as="geometry" />
        </mxCell>
        <mxCell id="nixui0lmoN9sBxmVn7yY-76" value="+ method(type): type" style="text;strokeColor=none;fillColor=none;align=left;verticalAlign=top;spacingLeft=4;spacingRight=4;overflow=hidden;rotatable=0;points=[[0,0.5],[1,0.5]];portConstraint=eastwest;" vertex="1" parent="nixui0lmoN9sBxmVn7yY-73">
          <mxGeometry y="60" width="160" height="26" as="geometry" />
        </mxCell>
        <mxCell id="nixui0lmoN9sBxmVn7yY-77" value="EventSystem" style="swimlane;fontStyle=1;align=center;verticalAlign=top;childLayout=stackLayout;horizontal=1;startSize=26;horizontalStack=0;resizeParent=1;resizeParentMax=0;resizeLast=0;collapsible=1;marginBottom=0;whiteSpace=wrap;html=1;" collapsed="1" vertex="1" parent="1">
          <mxGeometry x="190" y="950" width="110" height="26" as="geometry">
            <mxRectangle x="830" y="290" width="160" height="86" as="alternateBounds" />
          </mxGeometry>
        </mxCell>
        <mxCell id="nixui0lmoN9sBxmVn7yY-78" value="+ field: type" style="text;strokeColor=none;fillColor=none;align=left;verticalAlign=top;spacingLeft=4;spacingRight=4;overflow=hidden;rotatable=0;points=[[0,0.5],[1,0.5]];portConstraint=eastwest;whiteSpace=wrap;html=1;" vertex="1" parent="nixui0lmoN9sBxmVn7yY-77">
          <mxGeometry y="26" width="160" height="26" as="geometry" />
        </mxCell>
        <mxCell id="nixui0lmoN9sBxmVn7yY-79" value="" style="line;strokeWidth=1;fillColor=none;align=left;verticalAlign=middle;spacingTop=-1;spacingLeft=3;spacingRight=3;rotatable=0;labelPosition=right;points=[];portConstraint=eastwest;strokeColor=inherit;" vertex="1" parent="nixui0lmoN9sBxmVn7yY-77">
          <mxGeometry y="52" width="160" height="8" as="geometry" />
        </mxCell>
        <mxCell id="nixui0lmoN9sBxmVn7yY-80" value="+ method(type): type" style="text;strokeColor=none;fillColor=none;align=left;verticalAlign=top;spacingLeft=4;spacingRight=4;overflow=hidden;rotatable=0;points=[[0,0.5],[1,0.5]];portConstraint=eastwest;whiteSpace=wrap;html=1;" vertex="1" parent="nixui0lmoN9sBxmVn7yY-77">
          <mxGeometry y="60" width="160" height="26" as="geometry" />
        </mxCell>
        <mxCell id="nixui0lmoN9sBxmVn7yY-81" value="Title Screen(script)" style="swimlane;fontStyle=1;align=center;verticalAlign=top;childLayout=stackLayout;horizontal=1;startSize=26;horizontalStack=0;resizeParent=1;resizeParentMax=0;resizeLast=0;collapsible=1;marginBottom=0;" vertex="1" parent="1">
          <mxGeometry x="-325" y="420" width="160" height="86" as="geometry">
            <mxRectangle x="295" y="200" width="145" height="26" as="alternateBounds" />
          </mxGeometry>
        </mxCell>
        <mxCell id="nixui0lmoN9sBxmVn7yY-82" value="+ field: type" style="text;strokeColor=none;fillColor=none;align=left;verticalAlign=top;spacingLeft=4;spacingRight=4;overflow=hidden;rotatable=0;points=[[0,0.5],[1,0.5]];portConstraint=eastwest;" vertex="1" parent="nixui0lmoN9sBxmVn7yY-81">
          <mxGeometry y="26" width="160" height="26" as="geometry" />
        </mxCell>
        <mxCell id="nixui0lmoN9sBxmVn7yY-83" value="" style="line;strokeWidth=1;fillColor=none;align=left;verticalAlign=middle;spacingTop=-1;spacingLeft=3;spacingRight=3;rotatable=0;labelPosition=right;points=[];portConstraint=eastwest;" vertex="1" parent="nixui0lmoN9sBxmVn7yY-81">
          <mxGeometry y="52" width="160" height="8" as="geometry" />
        </mxCell>
        <mxCell id="nixui0lmoN9sBxmVn7yY-84" value="+ method(type): type" style="text;strokeColor=none;fillColor=none;align=left;verticalAlign=top;spacingLeft=4;spacingRight=4;overflow=hidden;rotatable=0;points=[[0,0.5],[1,0.5]];portConstraint=eastwest;" vertex="1" parent="nixui0lmoN9sBxmVn7yY-81">
          <mxGeometry y="60" width="160" height="26" as="geometry" />
        </mxCell>
        <mxCell id="nixui0lmoN9sBxmVn7yY-85" value="&lt;div&gt;Bird Spawner&lt;br&gt;&lt;/div&gt;" style="swimlane;fontStyle=1;align=center;verticalAlign=top;childLayout=stackLayout;horizontal=1;startSize=26;horizontalStack=0;resizeParent=1;resizeParentMax=0;resizeLast=0;collapsible=1;marginBottom=0;whiteSpace=wrap;html=1;" vertex="1" parent="1">
          <mxGeometry x="-330" y="650" width="210" height="148" as="geometry">
            <mxRectangle x="285" y="410" width="70" height="26" as="alternateBounds" />
          </mxGeometry>
        </mxCell>
        <mxCell id="nixui0lmoN9sBxmVn7yY-86" value="+ BirdPrefab: prefab&lt;div&gt;+ MinSpawnInterval&lt;span style=&quot;background-color: initial;&quot;&gt;: float&lt;/span&gt;&lt;br&gt;&lt;/div&gt;&lt;div&gt;+ MaxSpawnInterval&lt;span style=&quot;background-color: initial;&quot;&gt;: float&lt;/span&gt;&lt;/div&gt;&lt;div&gt;+ spawnPositionRangeX&lt;span style=&quot;background-color: initial;&quot;&gt;: Vector2&lt;/span&gt;&lt;br&gt;&lt;/div&gt;&lt;div&gt;&lt;div&gt;+ spawnPositionRangeY&lt;span style=&quot;background-color: initial;&quot;&gt;: Vector2&lt;/span&gt;&lt;br&gt;&lt;/div&gt;&lt;/div&gt;&lt;div&gt;&lt;div&gt;+ despawnTime&lt;span style=&quot;background-color: initial;&quot;&gt;: float&lt;/span&gt;&lt;/div&gt;&lt;div&gt;&lt;div&gt;&lt;div&gt;+ maxBirds&lt;span style=&quot;background-color: initial;&quot;&gt;: int&lt;/span&gt;&lt;/div&gt;&lt;/div&gt;&lt;/div&gt;&lt;/div&gt;" style="text;strokeColor=none;fillColor=none;align=left;verticalAlign=top;spacingLeft=4;spacingRight=4;overflow=hidden;rotatable=0;points=[[0,0.5],[1,0.5]];portConstraint=eastwest;whiteSpace=wrap;html=1;" vertex="1" parent="nixui0lmoN9sBxmVn7yY-85">
          <mxGeometry y="26" width="210" height="114" as="geometry" />
        </mxCell>
        <mxCell id="nixui0lmoN9sBxmVn7yY-87" value="" style="line;strokeWidth=1;fillColor=none;align=left;verticalAlign=middle;spacingTop=-1;spacingLeft=3;spacingRight=3;rotatable=0;labelPosition=right;points=[];portConstraint=eastwest;strokeColor=inherit;" vertex="1" parent="nixui0lmoN9sBxmVn7yY-85">
          <mxGeometry y="140" width="210" height="8" as="geometry" />
        </mxCell>
        <mxCell id="nixui0lmoN9sBxmVn7yY-88" value="BirdMovement" style="swimlane;fontStyle=1;align=center;verticalAlign=top;childLayout=stackLayout;horizontal=1;startSize=26;horizontalStack=0;resizeParent=1;resizeParentMax=0;resizeLast=0;collapsible=1;marginBottom=0;" vertex="1" parent="1">
          <mxGeometry x="-90" y="600" width="160" height="130" as="geometry">
            <mxRectangle x="425" y="506" width="130" height="26" as="alternateBounds" />
          </mxGeometry>
        </mxCell>
        <mxCell id="nixui0lmoN9sBxmVn7yY-89" value="+ minAmplitude: float&#xa;+ maxAmplitude: float&#xa;+ minFrequency: float&#xa;+ maxFrequency: float&#xa;+ useSine: bool" style="text;strokeColor=none;fillColor=none;align=left;verticalAlign=top;spacingLeft=4;spacingRight=4;overflow=hidden;rotatable=0;points=[[0,0.5],[1,0.5]];portConstraint=eastwest;" vertex="1" parent="nixui0lmoN9sBxmVn7yY-88">
          <mxGeometry y="26" width="160" height="84" as="geometry" />
        </mxCell>
        <mxCell id="nixui0lmoN9sBxmVn7yY-90" value="" style="line;strokeWidth=1;fillColor=none;align=left;verticalAlign=middle;spacingTop=-1;spacingLeft=3;spacingRight=3;rotatable=0;labelPosition=right;points=[];portConstraint=eastwest;" vertex="1" parent="nixui0lmoN9sBxmVn7yY-88">
          <mxGeometry y="110" width="160" height="20" as="geometry" />
        </mxCell>
        <mxCell id="nixui0lmoN9sBxmVn7yY-91" style="edgeStyle=orthogonalEdgeStyle;rounded=0;orthogonalLoop=1;jettySize=auto;html=1;exitX=1;exitY=0.5;exitDx=0;exitDy=0;entryX=0.75;entryY=1;entryDx=0;entryDy=0;" edge="1" parent="1" source="nixui0lmoN9sBxmVn7yY-93" target="nixui0lmoN9sBxmVn7yY-88">
          <mxGeometry relative="1" as="geometry" />
        </mxCell>
        <mxCell id="nixui0lmoN9sBxmVn7yY-92" style="edgeStyle=orthogonalEdgeStyle;rounded=0;orthogonalLoop=1;jettySize=auto;html=1;exitX=0.75;exitY=0;exitDx=0;exitDy=0;entryX=0.75;entryY=1;entryDx=0;entryDy=0;" edge="1" parent="1" source="nixui0lmoN9sBxmVn7yY-93" target="nixui0lmoN9sBxmVn7yY-100">
          <mxGeometry relative="1" as="geometry" />
        </mxCell>
        <mxCell id="nixui0lmoN9sBxmVn7yY-93" value="Bird" style="swimlane;fontStyle=1;align=center;verticalAlign=top;childLayout=stackLayout;horizontal=1;startSize=26;horizontalStack=0;resizeParent=1;resizeParentMax=0;resizeLast=0;collapsible=1;marginBottom=0;" collapsed="1" vertex="1" parent="1">
          <mxGeometry x="-140" y="1190" width="140" height="26" as="geometry">
            <mxRectangle x="380" y="820" width="160" height="86" as="alternateBounds" />
          </mxGeometry>
        </mxCell>
        <mxCell id="nixui0lmoN9sBxmVn7yY-94" value="+ field: type" style="text;strokeColor=none;fillColor=none;align=left;verticalAlign=top;spacingLeft=4;spacingRight=4;overflow=hidden;rotatable=0;points=[[0,0.5],[1,0.5]];portConstraint=eastwest;" vertex="1" parent="nixui0lmoN9sBxmVn7yY-93">
          <mxGeometry y="26" width="160" height="26" as="geometry" />
        </mxCell>
        <mxCell id="nixui0lmoN9sBxmVn7yY-95" value="" style="line;strokeWidth=1;fillColor=none;align=left;verticalAlign=middle;spacingTop=-1;spacingLeft=3;spacingRight=3;rotatable=0;labelPosition=right;points=[];portConstraint=eastwest;" vertex="1" parent="nixui0lmoN9sBxmVn7yY-93">
          <mxGeometry y="52" width="160" height="8" as="geometry" />
        </mxCell>
        <mxCell id="nixui0lmoN9sBxmVn7yY-96" value="+ method(type): type" style="text;strokeColor=none;fillColor=none;align=left;verticalAlign=top;spacingLeft=4;spacingRight=4;overflow=hidden;rotatable=0;points=[[0,0.5],[1,0.5]];portConstraint=eastwest;" vertex="1" parent="nixui0lmoN9sBxmVn7yY-93">
          <mxGeometry y="60" width="160" height="26" as="geometry" />
        </mxCell>
        <mxCell id="nixui0lmoN9sBxmVn7yY-97" value="RockFalling" style="swimlane;fontStyle=1;align=center;verticalAlign=top;childLayout=stackLayout;horizontal=1;startSize=26;horizontalStack=0;resizeParent=1;resizeParentMax=0;resizeLast=0;collapsible=1;marginBottom=0;" vertex="1" parent="1">
          <mxGeometry x="-140" y="420" width="210" height="150" as="geometry">
            <mxRectangle x="455" y="224" width="130" height="26" as="alternateBounds" />
          </mxGeometry>
        </mxCell>
        <mxCell id="nixui0lmoN9sBxmVn7yY-98" value="+ RockPrefab: prefab&#xa;+ birdTransform: Transform&#xa;+ initialMinSpawnInterval: float&#xa;+ initialMaxSpawnInterval: float&#xa;+ minimumSpawnInterval: float&#xa;+ intervalReductionRate: float&#xa;+ despawnDistance: float+ maxRocksDropped: int" style="text;strokeColor=none;fillColor=none;align=left;verticalAlign=top;spacingLeft=4;spacingRight=4;overflow=hidden;rotatable=0;points=[[0,0.5],[1,0.5]];portConstraint=eastwest;" vertex="1" parent="nixui0lmoN9sBxmVn7yY-97">
          <mxGeometry y="26" width="210" height="114" as="geometry" />
        </mxCell>
        <mxCell id="nixui0lmoN9sBxmVn7yY-99" value="" style="line;strokeWidth=1;fillColor=none;align=left;verticalAlign=middle;spacingTop=-1;spacingLeft=3;spacingRight=3;rotatable=0;labelPosition=right;points=[];portConstraint=eastwest;" vertex="1" parent="nixui0lmoN9sBxmVn7yY-97">
          <mxGeometry y="140" width="210" height="10" as="geometry" />
        </mxCell>
        <mxCell id="nixui0lmoN9sBxmVn7yY-100" value="Rock" style="swimlane;fontStyle=1;align=center;verticalAlign=top;childLayout=stackLayout;horizontal=1;startSize=26;horizontalStack=0;resizeParent=1;resizeParentMax=0;resizeLast=0;collapsible=1;marginBottom=0;" collapsed="1" vertex="1" parent="1">
          <mxGeometry x="-140" y="1130" width="140" height="26" as="geometry">
            <mxRectangle x="730" y="510" width="160" height="86" as="alternateBounds" />
          </mxGeometry>
        </mxCell>
        <mxCell id="nixui0lmoN9sBxmVn7yY-101" value="+ field: type" style="text;strokeColor=none;fillColor=none;align=left;verticalAlign=top;spacingLeft=4;spacingRight=4;overflow=hidden;rotatable=0;points=[[0,0.5],[1,0.5]];portConstraint=eastwest;" vertex="1" parent="nixui0lmoN9sBxmVn7yY-100">
          <mxGeometry y="26" width="160" height="26" as="geometry" />
        </mxCell>
        <mxCell id="nixui0lmoN9sBxmVn7yY-102" value="" style="line;strokeWidth=1;fillColor=none;align=left;verticalAlign=middle;spacingTop=-1;spacingLeft=3;spacingRight=3;rotatable=0;labelPosition=right;points=[];portConstraint=eastwest;" vertex="1" parent="nixui0lmoN9sBxmVn7yY-100">
          <mxGeometry y="52" width="160" height="8" as="geometry" />
        </mxCell>
        <mxCell id="nixui0lmoN9sBxmVn7yY-103" value="+ method(type): type" style="text;strokeColor=none;fillColor=none;align=left;verticalAlign=top;spacingLeft=4;spacingRight=4;overflow=hidden;rotatable=0;points=[[0,0.5],[1,0.5]];portConstraint=eastwest;" vertex="1" parent="nixui0lmoN9sBxmVn7yY-100">
          <mxGeometry y="60" width="160" height="26" as="geometry" />
        </mxCell>
        <mxCell id="nixui0lmoN9sBxmVn7yY-104" value="PlayerMovement" style="swimlane;fontStyle=1;align=center;verticalAlign=top;childLayout=stackLayout;horizontal=1;startSize=26;horizontalStack=0;resizeParent=1;resizeParentMax=0;resizeLast=0;collapsible=1;marginBottom=0;whiteSpace=wrap;html=1;" vertex="1" parent="1">
          <mxGeometry x="-582.5" y="786" width="160" height="158" as="geometry">
            <mxRectangle x="160" y="444" width="90" height="26" as="alternateBounds" />
          </mxGeometry>
        </mxCell>
        <mxCell id="nixui0lmoN9sBxmVn7yY-105" value="+ JumpTime: float&lt;div&gt;+ JumpPower&lt;span style=&quot;background-color: initial;&quot;&gt;: float&lt;/span&gt;&lt;br&gt;&lt;/div&gt;&lt;div&gt;+ FallMultiplier: float&lt;div&gt;+ JumpMultiplier&lt;span style=&quot;background-color: initial;&quot;&gt;: float&lt;/span&gt;&lt;br&gt;&lt;/div&gt;&lt;div&gt;+ PlayerSpeed&lt;span style=&quot;background-color: initial;&quot;&gt;: float&lt;/span&gt;&lt;/div&gt;&lt;/div&gt;&lt;div&gt;&lt;div&gt;+ GroundCheck&lt;span style=&quot;background-color: initial;&quot;&gt;: Transform&lt;/span&gt;&lt;/div&gt;&lt;/div&gt;&lt;div&gt;&lt;div&gt;+ GroundLayer&lt;span style=&quot;background-color: initial;&quot;&gt;: layer&lt;/span&gt;&lt;/div&gt;&lt;div&gt;+ waterSwimPower&lt;span style=&quot;background-color: initial;&quot;&gt;: float&lt;/span&gt;&lt;/div&gt;&lt;/div&gt;" style="text;strokeColor=none;fillColor=none;align=left;verticalAlign=top;spacingLeft=4;spacingRight=4;overflow=hidden;rotatable=0;points=[[0,0.5],[1,0.5]];portConstraint=eastwest;whiteSpace=wrap;html=1;" vertex="1" parent="nixui0lmoN9sBxmVn7yY-104">
          <mxGeometry y="26" width="160" height="124" as="geometry" />
        </mxCell>
        <mxCell id="nixui0lmoN9sBxmVn7yY-106" value="" style="line;strokeWidth=1;fillColor=none;align=left;verticalAlign=middle;spacingTop=-1;spacingLeft=3;spacingRight=3;rotatable=0;labelPosition=right;points=[];portConstraint=eastwest;strokeColor=inherit;" vertex="1" parent="nixui0lmoN9sBxmVn7yY-104">
          <mxGeometry y="150" width="160" height="8" as="geometry" />
        </mxCell>
        <mxCell id="nixui0lmoN9sBxmVn7yY-107" value="Change Sprite" style="swimlane;fontStyle=1;align=center;verticalAlign=top;childLayout=stackLayout;horizontal=1;startSize=26;horizontalStack=0;resizeParent=1;resizeParentMax=0;resizeLast=0;collapsible=1;marginBottom=0;whiteSpace=wrap;html=1;" vertex="1" parent="1">
          <mxGeometry x="-582.5" y="420" width="160" height="58" as="geometry">
            <mxRectangle x="330" y="124" width="90" height="26" as="alternateBounds" />
          </mxGeometry>
        </mxCell>
        <mxCell id="nixui0lmoN9sBxmVn7yY-108" value="+ UnderwaterColor: Color" style="text;strokeColor=none;fillColor=none;align=left;verticalAlign=top;spacingLeft=4;spacingRight=4;overflow=hidden;rotatable=0;points=[[0,0.5],[1,0.5]];portConstraint=eastwest;whiteSpace=wrap;html=1;" vertex="1" parent="nixui0lmoN9sBxmVn7yY-107">
          <mxGeometry y="26" width="160" height="24" as="geometry" />
        </mxCell>
        <mxCell id="nixui0lmoN9sBxmVn7yY-109" value="" style="line;strokeWidth=1;fillColor=none;align=left;verticalAlign=middle;spacingTop=-1;spacingLeft=3;spacingRight=3;rotatable=0;labelPosition=right;points=[];portConstraint=eastwest;strokeColor=inherit;" vertex="1" parent="nixui0lmoN9sBxmVn7yY-107">
          <mxGeometry y="50" width="160" height="8" as="geometry" />
        </mxCell>
        <mxCell id="nixui0lmoN9sBxmVn7yY-110" value="Score Text" style="swimlane;fontStyle=1;align=center;verticalAlign=top;childLayout=stackLayout;horizontal=1;startSize=26;horizontalStack=0;resizeParent=1;resizeParentMax=0;resizeLast=0;collapsible=1;marginBottom=0;whiteSpace=wrap;html=1;" collapsed="1" vertex="1" parent="1">
          <mxGeometry x="-465" y="1248" width="100" height="30" as="geometry">
            <mxRectangle x="25" y="920" width="160" height="86" as="alternateBounds" />
          </mxGeometry>
        </mxCell>
        <mxCell id="nixui0lmoN9sBxmVn7yY-111" value="+ field: type" style="text;strokeColor=none;fillColor=none;align=left;verticalAlign=top;spacingLeft=4;spacingRight=4;overflow=hidden;rotatable=0;points=[[0,0.5],[1,0.5]];portConstraint=eastwest;whiteSpace=wrap;html=1;" vertex="1" parent="nixui0lmoN9sBxmVn7yY-110">
          <mxGeometry y="26" width="160" height="26" as="geometry" />
        </mxCell>
        <mxCell id="nixui0lmoN9sBxmVn7yY-112" value="" style="line;strokeWidth=1;fillColor=none;align=left;verticalAlign=middle;spacingTop=-1;spacingLeft=3;spacingRight=3;rotatable=0;labelPosition=right;points=[];portConstraint=eastwest;strokeColor=inherit;" vertex="1" parent="nixui0lmoN9sBxmVn7yY-110">
          <mxGeometry y="52" width="160" height="8" as="geometry" />
        </mxCell>
        <mxCell id="nixui0lmoN9sBxmVn7yY-113" value="+ method(type): type" style="text;strokeColor=none;fillColor=none;align=left;verticalAlign=top;spacingLeft=4;spacingRight=4;overflow=hidden;rotatable=0;points=[[0,0.5],[1,0.5]];portConstraint=eastwest;whiteSpace=wrap;html=1;" vertex="1" parent="nixui0lmoN9sBxmVn7yY-110">
          <mxGeometry y="60" width="160" height="26" as="geometry" />
        </mxCell>
        <mxCell id="nixui0lmoN9sBxmVn7yY-114" style="edgeStyle=orthogonalEdgeStyle;rounded=0;orthogonalLoop=1;jettySize=auto;html=1;exitX=0;exitY=0.5;exitDx=0;exitDy=0;entryX=1;entryY=0.5;entryDx=0;entryDy=0;" edge="1" parent="1" source="nixui0lmoN9sBxmVn7yY-108" target="nixui0lmoN9sBxmVn7yY-24">
          <mxGeometry relative="1" as="geometry">
            <Array as="points">
              <mxPoint x="-630" y="458" />
              <mxPoint x="-630" y="330" />
              <mxPoint x="120" y="330" />
              <mxPoint x="120" y="1089" />
            </Array>
          </mxGeometry>
        </mxCell>
        <mxCell id="nixui0lmoN9sBxmVn7yY-115" style="edgeStyle=orthogonalEdgeStyle;rounded=0;orthogonalLoop=1;jettySize=auto;html=1;exitX=1;exitY=0.5;exitDx=0;exitDy=0;entryX=1;entryY=0.75;entryDx=0;entryDy=0;" edge="1" parent="1" source="nixui0lmoN9sBxmVn7yY-98" target="nixui0lmoN9sBxmVn7yY-93">
          <mxGeometry relative="1" as="geometry">
            <Array as="points">
              <mxPoint x="560" y="503" />
              <mxPoint x="560" y="1210" />
            </Array>
          </mxGeometry>
        </mxCell>
        <mxCell id="nixui0lmoN9sBxmVn7yY-116" style="edgeStyle=orthogonalEdgeStyle;rounded=0;orthogonalLoop=1;jettySize=auto;html=1;exitX=0;exitY=0.5;exitDx=0;exitDy=0;entryX=0.819;entryY=0.081;entryDx=0;entryDy=0;entryPerimeter=0;" edge="1" parent="1" source="nixui0lmoN9sBxmVn7yY-93" target="nixui0lmoN9sBxmVn7yY-28">
          <mxGeometry relative="1" as="geometry" />
        </mxCell>
        <mxCell id="nixui0lmoN9sBxmVn7yY-117" style="edgeStyle=orthogonalEdgeStyle;rounded=0;orthogonalLoop=1;jettySize=auto;html=1;exitX=0;exitY=0.5;exitDx=0;exitDy=0;entryX=0.5;entryY=1;entryDx=0;entryDy=0;" edge="1" parent="1" source="nixui0lmoN9sBxmVn7yY-66" target="nixui0lmoN9sBxmVn7yY-61">
          <mxGeometry relative="1" as="geometry">
            <Array as="points">
              <mxPoint x="-690" y="579" />
              <mxPoint x="-690" y="1470" />
              <mxPoint x="-100" y="1470" />
            </Array>
          </mxGeometry>
        </mxCell>
        <mxCell id="nixui0lmoN9sBxmVn7yY-118" style="edgeStyle=orthogonalEdgeStyle;rounded=0;orthogonalLoop=1;jettySize=auto;html=1;exitX=0;exitY=0.5;exitDx=0;exitDy=0;" edge="1" parent="1" source="nixui0lmoN9sBxmVn7yY-59" target="nixui0lmoN9sBxmVn7yY-73">
          <mxGeometry relative="1" as="geometry">
            <Array as="points">
              <mxPoint x="-400" y="579" />
            </Array>
          </mxGeometry>
        </mxCell>
      </root>
    </mxGraphModel>
  </diagram>
</mxfile>
